<mxfile host="app.diagrams.net" modified="2021-02-01T02:18:51.838Z" agent="5.0 (Windows NT 10.0; Win64; x64) AppleWebKit/537.36 (KHTML, like Gecko) Chrome/88.0.4324.104 Safari/537.36" etag="o8poYYISBXghJI23KHng" version="14.2.9" type="github">
  <diagram id="Du6pm5e4uxYSHS0i3DuL" name="Page-1">
    <mxGraphModel dx="898" dy="482" grid="1" gridSize="10" guides="1" tooltips="1" connect="1" arrows="1" fold="1" page="1" pageScale="1" pageWidth="850" pageHeight="1100" math="0" shadow="0">
      <root>
        <mxCell id="0" />
        <mxCell id="1" parent="0" />
        <mxCell id="0iuC81JQH2bmLPUaC_nH-1" value="hello" style="rounded=0;whiteSpace=wrap;html=1;sketch=0;shadow=0;glass=0;comic=1;fillColor=#dae8fc;strokeColor=#6c8ebf;container=0;" vertex="1" parent="1">
          <mxGeometry x="190" y="90" width="120" height="60" as="geometry" />
        </mxCell>
      </root>
    </mxGraphModel>
  </diagram>
</mxfile>
